<?xml version="1.0" encoding="UTF-8"?>
<svg version="1.1" xmlns="http://www.w3.org/2000/svg" width="500" height="500">
<path d="M0 0 C165 0 330 0 500 0 C500 165 500 330 500 500 C335 500 170 500 0 500 C0 335 0 170 0 0 Z " fill="#FEFEFE" transform="translate(0,0)"/>
<path d="M0 0 C1.21913086 -0.0309375 1.21913086 -0.0309375 2.46289062 -0.0625 C14.23727589 -0.13743642 24.3821608 4.92667803 33 12.8125 C39.74085418 19.94987502 44.80306714 29.41261791 45.8125 39.25 C45.89371094 39.9409375 45.97492188 40.631875 46.05859375 41.34375 C47.33796289 62.74410645 29.82456856 86.27977354 18.8125 103.25 C19.89809204 103.32347656 19.89809204 103.32347656 21.00561523 103.3984375 C33.7816887 104.38703053 43.12583736 108.57700316 51.8125 118.25 C54.95279542 123.11844541 54.5819743 128.68505191 53.8125 134.25 C47.81042493 149.65238382 32.63694289 157.38945754 18.75 164.5 C18.13833984 164.81710937 17.52667969 165.13421875 16.89648438 165.4609375 C14.89252025 166.45768455 12.86586974 167.35902685 10.8125 168.25 C10.02450516 168.5941394 9.23651031 168.93827881 8.42463684 169.29284668 C-0.95087537 172.90547083 -9.75870029 172.7655871 -19.640625 172.640625 C-21.39466705 172.63314815 -23.14871755 172.62746206 -24.902771 172.62347412 C-29.47971382 172.60833123 -34.05613449 172.56914996 -38.63287354 172.5246582 C-43.31897929 172.48345808 -48.00517089 172.46541071 -52.69140625 172.4453125 C-61.85699801 172.40264249 -71.02220529 172.33453195 -80.1875 172.25 C-75.97469937 159.2202511 -66.4729638 153.25685627 -54.75 147.1875 C-42.37376028 141.02823091 -29.31626231 137.50970535 -15.7734375 135.02734375 C-8.43441637 133.43642305 0.13450868 131.33737284 5.8125 126.25 C6.60873822 124.15584196 6.60873822 124.15584196 6.8125 122.25 C6.1525 122.25 5.4925 122.25 4.8125 122.25 C4.1525 123.9 3.4925 125.55 2.8125 127.25 C1.4925 127.25 0.1725 127.25 -1.1875 127.25 C-2.58862305 125.16137695 -2.58862305 125.16137695 -4.01171875 122.42578125 C-6.27321784 119.00793641 -7.53002899 117.49826249 -11.40087891 116.03662109 C-15.25814828 115.32288044 -19.09915116 114.8177135 -23 114.4375 C-43.91766905 112.10140001 -43.91766905 112.10140001 -49.92797852 105.27246094 C-51.70361054 102.42126193 -51.61328303 100.54981852 -51.1875 97.25 C-46.72017559 89.48473904 -38.9028203 85.24910769 -31.1875 81.25 C-31.6928125 80.19039063 -32.198125 79.13078125 -32.71875 78.0390625 C-33.37520131 76.65113686 -34.03144033 75.26311081 -34.6875 73.875 C-35.02136719 73.17632812 -35.35523438 72.47765625 -35.69921875 71.7578125 C-38.1875 66.4765625 -38.1875 66.4765625 -38.1875 64.25 C-38.744375 64.745 -39.30125 65.24 -39.875 65.75 C-42.60258925 67.51924708 -43.99598491 67.6699362 -47.1875 67.25 C-48.1775 66.26 -48.1775 66.26 -49.1875 65.25 C-49.1875 64.26 -49.1875 63.27 -49.1875 62.25 C-40.9375 62.58 -32.6875 62.91 -24.1875 63.25 C-23.5275 64.9 -22.8675 66.55 -22.1875 68.25 C-21.1975 68.25 -20.2075 68.25 -19.1875 68.25 C-17.78292263 65.44084526 -17.93854843 63.36189466 -18.1875 60.25 C-19.56676773 57.90738392 -19.56676773 57.90738392 -21.1875 56.25 C-19.5375 56.58 -17.8875 56.91 -16.1875 57.25 C-16.22875 58.301875 -16.27 59.35375 -16.3125 60.4375 C-15.04627785 64.72858618 -14.60241762 65.11207387 -10.875 67.1875 C-4.08383614 70.1035347 2.51007872 70.62556286 9.5859375 68.36328125 C16.67308734 65.16023005 21.52402298 60.62875696 24.6875 53.5 C26.94159381 46.46614101 26.81995495 39.6751899 23.75 32.9375 C19.86273549 26.03897424 14.45908517 21.50636939 6.8125 19.25 C-1.60183108 18.17735156 -8.20992302 19.32831623 -15.1875 24.25 C-19.13138369 27.67539898 -21.28065581 31.23337834 -23.1875 36.0625 C-24.125 38.38671875 -24.125 38.38671875 -25.1875 40.25 C-28.1875 41.375 -28.1875 41.375 -31.1875 42.25 C-32.90158354 44.47936019 -33.95753857 46.69546473 -35.1875 49.25 C-37.8275 49.25 -40.4675 49.25 -43.1875 49.25 C-43.86240991 34.13951695 -41.63012999 23.94861641 -31.1875 12.25 C-21.73797941 4.15041092 -12.32146481 0.076353 0 0 Z " fill="#030303" transform="translate(249.1875,125.75)"/>
<path d="M0 0 C7.09921337 4.04038832 12.40946827 10.09388989 14.6875 18 C15.81905023 27.29285624 13.68178911 34.34275527 8.0625 41.75 C2.76697525 47.42945029 -3.58346925 50.25742399 -11.3125 50.625 C-17.38166546 50.37375382 -22.32746462 48.44876662 -27.3125 45 C-28.61298841 42.39902318 -28.87721422 39.86044938 -29.3125 37 C-29.6425 37.33 -29.9725 37.66 -30.3125 38 C-29.9825 38.66 -29.6525 39.32 -29.3125 40 C-29.05389865 44.05142119 -29.00808446 45.54337669 -31.3125 49 C-32.6325 48.67 -33.9525 48.34 -35.3125 48 C-35.8075 45.525 -35.8075 45.525 -36.3125 43 C-37.08440674 43.00523682 -37.85631348 43.01047363 -38.65161133 43.01586914 C-42.14273263 43.03663242 -45.63384095 43.04965811 -49.125 43.0625 C-50.94741211 43.07506836 -50.94741211 43.07506836 -52.80664062 43.08789062 C-54.55170898 43.09272461 -54.55170898 43.09272461 -56.33203125 43.09765625 C-57.40557861 43.10289307 -58.47912598 43.10812988 -59.58520508 43.11352539 C-62.3125 43 -62.3125 43 -65.3125 42 C-65.3125 38.04 -65.3125 34.08 -65.3125 30 C-62.3425 29.67 -59.3725 29.34 -56.3125 29 C-56.3125 25.04 -56.3125 21.08 -56.3125 17 C-55.9825 17 -55.6525 17 -55.3125 17 C-55.3125 20.96 -55.3125 24.92 -55.3125 29 C-51.21208101 28.94703719 -51.21208101 28.94703719 -47.3125 28 C-46.03148708 26.42984449 -46.03148708 26.42984449 -45.1875 24.5 C-44.56875 23.345 -43.95 22.19 -43.3125 21 C-40.0625 20.0625 -40.0625 20.0625 -37.3125 20 C-37.2196875 19.01 -37.2196875 19.01 -37.125 18 C-34.76879181 9.30015438 -28.68708375 3.57328456 -21.125 -0.875 C-13.8772999 -3.0136656 -6.96684074 -3.14357448 0 0 Z " fill="#FBFAFA" transform="translate(261.3125,146)"/>
<path d="M0 0 C0.99 0 1.98 0 3 0 C3 0.99 3 1.98 3 3 C4.26457031 3.10957031 5.52914062 3.21914062 6.83203125 3.33203125 C8.49225486 3.49148775 10.15240767 3.65168251 11.8125 3.8125 C12.64587891 3.88275391 13.47925781 3.95300781 14.33789062 4.02539062 C15.54155273 4.14624023 15.54155273 4.14624023 16.76953125 4.26953125 C17.50792236 4.33760986 18.24631348 4.40568848 19.00708008 4.47583008 C21.47084218 5.12383905 22.43492895 6.01414987 24 8 C24.6875 10.6875 24.6875 10.6875 25 13 C25.969375 12.979375 26.93875 12.95875 27.9375 12.9375 C31 13 31 13 32 14 C32.07179964 15.51928038 32.08392007 17.04167482 32.0625 18.5625 C32.05347656 19.38878906 32.04445313 20.21507812 32.03515625 21.06640625 C32.02355469 21.70449219 32.01195312 22.34257812 32 23 C30.35 23.33 28.7 23.66 27 24 C26.67 25.98 26.34 27.96 26 30 C23.5625 29.625 23.5625 29.625 21 29 C20.505 28.01 20.505 28.01 20 27 C15.38 27 10.76 27 6 27 C5.34 25.02 4.68 23.04 4 21 C3.505 21.495 3.505 21.495 3 22 C3.495 22.99 3.495 22.99 4 24 C4.25860135 28.05142119 4.30441554 29.54337669 2 33 C0.68 32.67 -0.64 32.34 -2 32 C-2.495 29.525 -2.495 29.525 -3 27 C-3.77190674 27.00523682 -4.54381348 27.01047363 -5.33911133 27.01586914 C-8.83023263 27.03663242 -12.32134095 27.04965811 -15.8125 27.0625 C-17.63491211 27.07506836 -17.63491211 27.07506836 -19.49414062 27.08789062 C-21.23920898 27.09272461 -21.23920898 27.09272461 -23.01953125 27.09765625 C-24.09307861 27.10289307 -25.16662598 27.10812988 -26.27270508 27.11352539 C-29 27 -29 27 -32 26 C-32 22.04 -32 18.08 -32 14 C-27.545 13.505 -27.545 13.505 -23 13 C-23 9.04 -23 5.08 -23 1 C-22.67 1 -22.34 1 -22 1 C-22 4.96 -22 8.92 -22 13 C-17.89958101 12.94703719 -17.89958101 12.94703719 -14 12 C-12.71898708 10.42984449 -12.71898708 10.42984449 -11.875 8.5 C-11.25625 7.345 -10.6375 6.19 -10 5 C-6.75 4.0625 -6.75 4.0625 -4 4 C-3.67 3.01 -3.34 2.02 -3 1 C-2.67 1.66 -2.34 2.32 -2 3 C-1.34 2.01 -0.68 1.02 0 0 Z " fill="#F0C842" transform="translate(228,162)"/>
<path d="M0 0 C0.33 0 0.66 0 1 0 C1 4.29 1 8.58 1 13 C-0.98 13.33 -2.96 13.66 -5 14 C-5 14.66 -5 15.32 -5 16 C0.61 16 6.22 16 12 16 C12 15.34 12 14.68 12 14 C14.475 14.495 14.475 14.495 17 15 C16.6875 16.9375 16.6875 16.9375 16 19 C15.01 19.33 14.02 19.66 13 20 C13.99 20 14.98 20 16 20 C16 20.66 16 21.32 16 22 C17.65 22 19.3 22 21 22 C21.33 21.01 21.66 20.02 22 19 C25.875 20.75 25.875 20.75 27 23 C27.25860135 27.05142119 27.30441554 28.54337669 25 32 C23.68 31.67 22.36 31.34 21 31 C20.505 28.525 20.505 28.525 20 26 C19.22809326 26.00523682 18.45618652 26.01047363 17.66088867 26.01586914 C14.16976737 26.03663242 10.67865905 26.04965811 7.1875 26.0625 C5.36508789 26.07506836 5.36508789 26.07506836 3.50585938 26.08789062 C1.76079102 26.09272461 1.76079102 26.09272461 -0.01953125 26.09765625 C-1.09307861 26.10289307 -2.16662598 26.10812988 -3.27270508 26.11352539 C-6 26 -6 26 -9 25 C-9 21.04 -9 17.08 -9 13 C-4.545 12.505 -4.545 12.505 0 12 C0 8.04 0 4.08 0 0 Z " fill="#ADA389" transform="translate(205,163)"/>
<path d="M0 0 C9.97716658 -0.66514444 19.34608363 1.76552398 27.12890625 8.25390625 C34.89636809 15.50245623 41.27121181 23.21994946 42.30078125 34.2109375 C42.31088156 36.83028474 42.23103622 39.39185775 42 42 C40.35 41.67 38.7 41.34 37 41 C36.91363281 40.16597656 36.82726562 39.33195312 36.73828125 38.47265625 C35.79650263 30.9297871 34.29770248 25.28125747 30 19 C29.443125 18.113125 28.88625 17.22625 28.3125 16.3125 C22.33406737 10.33406737 14.13204393 6.05056351 5.6875 5.375 C4.36298828 5.26285156 4.36298828 5.26285156 3.01171875 5.1484375 C2.34785156 5.09945312 1.68398437 5.05046875 1 5 C0.67 3.35 0.34 1.7 0 0 Z " fill="#EFEFEF" transform="translate(248,130)"/>
<path d="M0 0 C0.99 0 1.98 0 3 0 C2.67 1.32 2.34 2.64 2 4 C7.61 4.66 13.22 5.32 19 6 C18.01 6.33 17.02 6.66 16 7 C16 8.65 16 10.3 16 12 C18.86724686 11.42655063 19.8614515 11.1385485 22 9 C22 10.32 22 11.64 22 13 C20.35 13 18.7 13 17 13 C17 13.66 17 14.32 17 15 C16.34 15 15.68 15 15 15 C15 14.34 15 13.68 15 13 C1.14 12.505 1.14 12.505 -13 12 C-11 6 -11 6 -9.0625 4.625 C-7 4 -7 4 -4 4 C-3.67 3.01 -3.34 2.02 -3 1 C-2.67 1.66 -2.34 2.32 -2 3 C-1.34 2.01 -0.68 1.02 0 0 Z " fill="#708390" transform="translate(228,162)"/>
<path d="M0 0 C0.99 0.66 1.98 1.32 3 2 C1.89140625 2.54269531 0.7828125 3.08539063 -0.359375 3.64453125 C-1.82302269 4.36697274 -3.2865585 5.08964092 -4.75 5.8125 C-5.47960937 6.16892578 -6.20921875 6.52535156 -6.9609375 6.89257812 C-9.91844482 8.35788857 -12.61967041 9.70002173 -15.21875 11.75 C-17.52084497 13.36550524 -18.97197893 13.31005975 -21.75 13.1875 C-22.54921875 13.16042969 -23.3484375 13.13335937 -24.171875 13.10546875 C-24.77515625 13.07066406 -25.3784375 13.03585937 -26 13 C-23.01052149 8.77477171 -19.69522301 6.2118885 -15.25 3.6875 C-14.66734375 3.32849609 -14.0846875 2.96949219 -13.484375 2.59960938 C-8.8118043 -0.09019284 -5.37552338 -0.51168685 0 0 Z " fill="#F1F1F1" transform="translate(236,280)"/>
<path d="M0 0 C3.875 1.75 3.875 1.75 5 4 C5.25860135 8.05142119 5.30441554 9.54337669 3 13 C1.68 12.67 0.36 12.34 -1 12 C-1.33 10.35 -1.66 8.7 -2 7 C-3.22976562 7.01740234 -3.22976562 7.01740234 -4.484375 7.03515625 C-6.10085937 7.04869141 -6.10085937 7.04869141 -7.75 7.0625 C-9.35101563 7.07990234 -9.35101563 7.07990234 -10.984375 7.09765625 C-13.53368501 7.01510087 -15.57933591 6.74617558 -18 6 C-18 5.34 -18 4.68 -18 4 C-14.92382812 3.70703125 -14.92382812 3.70703125 -11.84765625 3.4140625 C-11.23792969 3.27742187 -10.62820312 3.14078125 -10 3 C-9.67 2.34 -9.34 1.68 -9 1 C-8.01 1 -7.02 1 -6 1 C-6 1.66 -6 2.32 -6 3 C-4.35 3 -2.7 3 -1 3 C-0.67 2.01 -0.34 1.02 0 0 Z " fill="#A5977C" transform="translate(227,182)"/>
<path d="M0 0 C1.45742463 -0.08096803 2.91612807 -0.13917774 4.375 -0.1875 C5.18710938 -0.22230469 5.99921875 -0.25710937 6.8359375 -0.29296875 C7.55007812 -0.19628906 8.26421875 -0.09960938 9 0 C9.66 0.99 10.32 1.98 11 3 C9.68 3 8.36 3 7 3 C6.67 4.32 6.34 5.64 6 7 C7.98 6.67 9.96 6.34 12 6 C12 5.34 12 4.68 12 4 C13.32 4 14.64 4 16 4 C15.125 11.75 15.125 11.75 14 14 C11.5625 13.625 11.5625 13.625 9 13 C8.67 12.34 8.34 11.68 8 11 C3.38 11 -1.24 11 -6 11 C-6 10.34 -6 9.68 -6 9 C-2.7 8.34 0.6 7.68 4 7 C4.33 5.35 4.66 3.7 5 2 C4.34 2 3.68 2 3 2 C2.67 2.99 2.34 3.98 2 5 C1.34 5 0.68 5 0 5 C0 3.35 0 1.7 0 0 Z " fill="#DD9B21" transform="translate(240,178)"/>
<path d="M0 0 C0.96550781 0.00451172 1.93101562 0.00902344 2.92578125 0.01367188 C5.28392089 0.02534583 7.64192602 0.04171979 10 0.0625 C7.19079315 1.52869919 5.04049627 2.34215147 1.875 2.625 C-1.78900424 2.81365044 -1.78900424 2.81365044 -4 4.0625 C-6.125 3.625 -6.125 3.625 -8 3.0625 C-8 3.7225 -8 4.3825 -8 5.0625 C-13.61 5.0625 -19.22 5.0625 -25 5.0625 C-25 4.4025 -25 3.7425 -25 3.0625 C-16.75754889 -0.02841917 -8.68320721 -0.07784944 0 0 Z " fill="#E5B230" transform="translate(225,173.9375)"/>
<path d="M0 0 C-3.65155343 4.48145193 -8.58643151 7.17183713 -14 9 C-17.25046523 9.11489126 -19.78445706 8.67422675 -23 8 C-16.39885517 2.76949861 -8.54454165 -2.7187178 0 0 Z " fill="#F0F0F0" transform="translate(276,265)"/>
<path d="M0 0 C3.96 0 7.92 0 12 0 C12.33 1.65 12.66 3.3 13 5 C13.99 5.33 14.98 5.66 16 6 C10.06 6 4.12 6 -2 6 C-1.34 4.02 -0.68 2.04 0 0 Z " fill="#879CAC" transform="translate(217,168)"/>
<path d="M0 0 C2.6510695 3.21915582 3.0336357 4.5896445 2.6875 8.8125 C2.460625 9.864375 2.23375 10.91625 2 12 C0.02 12 -1.96 12 -4 12 C-4.66 8.04 -5.32 4.08 -6 0 C-3 -1 -3 -1 0 0 Z " fill="#E6E6E6" transform="translate(283,244)"/>
<path d="M0 0 C0.66 0 1.32 0 2 0 C3.28406399 1.95224208 4.47941678 3.96340762 5.625 6 C6.57246094 7.670625 6.57246094 7.670625 7.5390625 9.375 C8.26222656 10.674375 8.26222656 10.674375 9 12 C5.73635123 13.06192476 5.17280159 13.07454186 1.8125 11.625 C-1 10 -1 10 -2 9 C-2.26293056 4.96839809 -2.29404844 3.44107266 0 0 Z " fill="#ECECEC" transform="translate(221,213)"/>
<path d="M0 0 C4.95 0 9.9 0 15 0 C15.33 1.65 15.66 3.3 16 5 C10.72 5 5.44 5 0 5 C0 3.35 0 1.7 0 0 Z " fill="#4E4A4C" transform="translate(201,180)"/>
<path d="M0 0 C2.97 0 5.94 0 9 0 C9 0.99 9 1.98 9 3 C9.45375 2.505 9.9075 2.01 10.375 1.5 C12 0 12 0 14 0 C14.1875 2.375 14.1875 2.375 14 5 C10.57369412 7.28420392 8.86208718 7.4751525 4.875 7.39453125 C3 7 3 7 1 4.625 C0 2 0 2 0 0 Z " fill="#F8C019" transform="translate(231,180)"/>
<path d="M0 0 C8.25 0.33 16.5 0.66 25 1 C25.66 2.65 26.32 4.3 27 6 C27.66 6.66 28.32 7.32 29 8 C26.525 7.505 26.525 7.505 24 7 C23.67 5.35 23.34 3.7 23 2 C20.70774565 2.11371497 18.41617612 2.24130964 16.125 2.375 C14.21074219 2.47941406 14.21074219 2.47941406 12.2578125 2.5859375 C8.91938301 2.67241106 8.91938301 2.67241106 7 5 C4.5 5.25 4.5 5.25 2 5 C1.34 4.34 0.68 3.68 0 3 C0 2.01 0 1.02 0 0 Z " fill="#332E31" transform="translate(200,188)"/>
<path d="M0 0 C15.30919139 -0.38219895 15.30919139 -0.38219895 21 2 C21.33 2.66 21.66 3.32 22 4 C21.34 4 20.68 4 20 4 C19.67 5.32 19.34 6.64 19 8 C17.68 8 16.36 8 15 8 C15 6.35 15 4.7 15 3 C7.575 2.01 7.575 2.01 0 1 C0 0.67 0 0.34 0 0 Z " fill="#DCC458" transform="translate(229,166)"/>
<path d="M0 0 C4.95 0 9.9 0 15 0 C15 0.33 15 0.66 15 1 C13.02 1 11.04 1 9 1 C9 1.66 9 2.32 9 3 C8.360625 3.12375 7.72125 3.2475 7.0625 3.375 C6.381875 3.58125 5.70125 3.7875 5 4 C4.67 4.66 4.34 5.32 4 6 C2.35 6 0.7 6 -1 6 C-1 5.34 -1 4.68 -1 4 C-2.32 4.33 -3.64 4.66 -5 5 C-4.67 4.01 -4.34 3.02 -4 2 C-3.01 2 -2.02 2 -1 2 C-0.67 1.34 -0.34 0.68 0 0 Z " fill="#F4C42B" transform="translate(222,179)"/>
<path d="M0 0 C1.32 0 2.64 0 4 0 C3.125 7.75 3.125 7.75 2 10 C0.35 9.67 -1.3 9.34 -3 9 C-3 7.68 -3 6.36 -3 5 C-2.34 5 -1.68 5 -1 5 C-0.67 3.35 -0.34 1.7 0 0 Z " fill="#6A635C" transform="translate(252,182)"/>
<path d="M0 0 C3.63 0 7.26 0 11 0 C10.01 0.33 9.02 0.66 8 1 C8 2.65 8 4.3 8 6 C10.86724686 5.42655063 11.8614515 5.1385485 14 3 C14 4.32 14 5.64 14 7 C12.35 7 10.7 7 9 7 C9 7.66 9 8.32 9 9 C8.34 9 7.68 9 7 9 C7 8.34 7 7.68 7 7 C4.69 7 2.38 7 0 7 C0.66 6.67 1.32 6.34 2 6 C2 5.34 2 4.68 2 4 C2.66 4 3.32 4 4 4 C4 4.66 4 5.32 4 6 C4.66 6 5.32 6 6 6 C6 4.35 6 2.7 6 1 C4.02 1.33 2.04 1.66 0 2 C0 1.34 0 0.68 0 0 Z " fill="#9C936A" transform="translate(236,168)"/>
<path d="M0 0 C4.29 0.33 8.58 0.66 13 1 C13.33 2.32 13.66 3.64 14 5 C10.04 5 6.08 5 2 5 C2.33 3.68 2.66 2.36 3 1 C2.01 0.67 1.02 0.34 0 0 Z " fill="#D3E2E8" transform="translate(228,161)"/>
<path d="M0 0 C0.33 0.66 0.66 1.32 1 2 C2.65 2 4.3 2 6 2 C6 2.33 6 2.66 6 3 C3.03 3 0.06 3 -3 3 C-3 3.66 -3 4.32 -3 5 C-1.68 5.33 -0.36 5.66 1 6 C-1.29141286 6.05384521 -3.58318188 6.09272087 -5.875 6.125 C-7.78925781 6.15980469 -7.78925781 6.15980469 -9.7421875 6.1953125 C-13 6 -13 6 -15 4 C-13.02 4 -11.04 4 -9 4 C-9 3.34 -9 2.68 -9 2 C-6.03 2 -3.06 2 0 2 C0 1.34 0 0.68 0 0 Z " fill="#A08C68" transform="translate(212,183)"/>
<path d="M0 0 C1.32 0 2.64 0 4 0 C5.38550197 2.77100394 5.1877467 4.9334706 5 8 C4.01 9.485 4.01 9.485 3 11 C1.68 10.67 0.36 10.34 -1 10 C0 8 0 8 2 5 C1.34 5 0.68 5 0 5 C0 4.34 0 3.68 0 3 C0.99 3 1.98 3 3 3 C3 2.34 3 1.68 3 1 C2.01 0.67 1.02 0.34 0 0 Z " fill="#B3B1B2" transform="translate(227,184)"/>
<path d="M0 0 C0.66 0 1.32 0 2 0 C2 0.99 2 1.98 2 3 C2.66 3 3.32 3 4 3 C4.33 4.32 4.66 5.64 5 7 C5.66 7 6.32 7 7 7 C7 7.66 7 8.32 7 9 C4.69 9.33 2.38 9.66 0 10 C0 6.7 0 3.4 0 0 Z " fill="#C2B69D" transform="translate(196,178)"/>
<path d="M0 0 C5.28 0 10.56 0 16 0 C16.33 0.66 16.66 1.32 17 2 C14.9174133 2.19561869 12.83388144 2.38119313 10.75 2.5625 C9.00976562 2.71912109 9.00976562 2.71912109 7.234375 2.87890625 C4.48128523 2.98198087 2.580018 2.86213473 0 2 C0 1.34 0 0.68 0 0 Z " fill="#CECCCB" transform="translate(209,186)"/>
<path d="M0 0 C0.99 0 1.98 0 3 0 C3.33 1.65 3.66 3.3 4 5 C5.98 5 7.96 5 10 5 C10 5.33 10 5.66 10 6 C5.38 6.33 0.76 6.66 -4 7 C-4 6.34 -4 5.68 -4 5 C-2.35 5 -0.7 5 1 5 C0.67 3.35 0.34 1.7 0 0 Z " fill="#ECCD57" transform="translate(249,170)"/>
<path d="M0 0 C4.95 0 9.9 0 15 0 C15.66 1.65 16.32 3.3 17 5 C17.66 5.66 18.32 6.32 19 7 C16.525 6.505 16.525 6.505 14 6 C13.67 4.35 13.34 2.7 13 1 C8.71 1 4.42 1 0 1 C0 0.67 0 0.34 0 0 Z " fill="#413D42" transform="translate(210,189)"/>
<path d="M0 0 C3.625 -0.1875 3.625 -0.1875 7 0 C7.66 1.32 8.32 2.64 9 4 C5.37 3.67 1.74 3.34 -2 3 C-1.34 2.01 -0.68 1.02 0 0 Z " fill="#C1C1C1" transform="translate(226,230)"/>
<path d="M0 0 C1.45742463 -0.08096803 2.91612807 -0.13917774 4.375 -0.1875 C5.18710938 -0.22230469 5.99921875 -0.25710937 6.8359375 -0.29296875 C7.55007812 -0.19628906 8.26421875 -0.09960938 9 0 C9.66 0.99 10.32 1.98 11 3 C9.02 3.33 7.04 3.66 5 4 C5 3.34 5 2.68 5 2 C4.34 2 3.68 2 3 2 C2.67 2.99 2.34 3.98 2 5 C1.34 5 0.68 5 0 5 C0 3.35 0 1.7 0 0 Z " fill="#B4A13D" transform="translate(240,178)"/>
<path d="M0 0 C1.27230469 0.01804688 2.54460937 0.03609375 3.85546875 0.0546875 C5.31919922 0.08949219 5.31919922 0.08949219 6.8125 0.125 C5.76171875 1.64453125 5.76171875 1.64453125 3.8125 3.125 C0.45703125 3.19921875 0.45703125 3.19921875 -3.375 2.8125 C-4.64730469 2.69261719 -5.91960937 2.57273438 -7.23046875 2.44921875 C-8.20628906 2.34222656 -9.18210938 2.23523438 -10.1875 2.125 C-6.4507157 -0.36618953 -4.44298181 -0.0815226 0 0 Z " fill="#EBC738" transform="translate(213.1875,174.875)"/>
<path d="M0 0 C0 1.65 0 3.3 0 5 C-0.66 5 -1.32 5 -2 5 C-2 4.34 -2 3.68 -2 3 C-2.66 3 -3.32 3 -4 3 C-4 3.66 -4 4.32 -4 5 C-4.99 5.33 -5.98 5.66 -7 6 C-7 4.35 -7 2.7 -7 1 C-4.53721199 -0.231394 -2.7204945 -0.07159196 0 0 Z " fill="#B4C3C8" transform="translate(242,169)"/>
<path d="M0 0 C2.97 0.33 5.94 0.66 9 1 C9 1.66 9 2.32 9 3 C5.33694766 3.74926071 2.57644848 4.2380014 -1 3 C-0.67 2.01 -0.34 1.02 0 0 Z " fill="#DEDEDE" transform="translate(263,236)"/>
<path d="M0 0 C4.95 0 9.9 0 15 0 C15 0.33 15 0.66 15 1 C13.02 1 11.04 1 9 1 C9 1.66 9 2.32 9 3 C6.03 2.67 3.06 2.34 0 2 C0 1.34 0 0.68 0 0 Z " fill="#D9B94B" transform="translate(222,179)"/>
<path d="M0 0 C1.65 0 3.3 0 5 0 C5 1.32 5 2.64 5 4 C5.99 4.33 6.98 4.66 8 5 C5.03 4.67 2.06 4.34 -1 4 C-0.67 2.68 -0.34 1.36 0 0 Z " fill="#C2D6E1" transform="translate(225,169)"/>
<path d="M0 0 C0.33 0.66 0.66 1.32 1 2 C1.66 2 2.32 2 3 2 C2.67 3.32 2.34 4.64 2 6 C1.01 5.67 0.02 5.34 -1 5 C-1 4.01 -1 3.02 -1 2 C-4.63 2 -8.26 2 -12 2 C-12 1.67 -12 1.34 -12 1 C-6.06 0.505 -6.06 0.505 0 0 Z " fill="#838184" transform="translate(226,187)"/>
<path d="M0 0 C1.65 0 3.3 0 5 0 C4.67 1.65 4.34 3.3 4 5 C2.35 4.67 0.7 4.34 -1 4 C-0.67 2.68 -0.34 1.36 0 0 Z " fill="#CBDEE8" transform="translate(218,169)"/>
<path d="M0 0 C0.99 0 1.98 0 3 0 C2.125 3.875 2.125 3.875 1 5 C-0.66617115 5.04063832 -2.33388095 5.042721 -4 5 C-3.67 3.68 -3.34 2.36 -3 1 C-2.67 1.66 -2.34 2.32 -2 3 C-1.34 2.01 -0.68 1.02 0 0 Z " fill="#A79E8B" transform="translate(228,162)"/>
<path d="M0 0 C1.98 0 3.96 0 6 0 C5.67 1.65 5.34 3.3 5 5 C4.01 5 3.02 5 2 5 C1.34 3.35 0.68 1.7 0 0 Z " fill="#F9CD21" transform="translate(231,180)"/>
<path d="M0 0 C4.62 0.66 9.24 1.32 14 2 C14 2.33 14 2.66 14 3 C11.03 3 8.06 3 5 3 C4.67 3.99 4.34 4.98 4 6 C4 5.34 4 4.68 4 4 C3.34 4 2.68 4 2 4 C2 3.01 2 2.02 2 1 C1.34 0.67 0.68 0.34 0 0 Z " fill="#887D70" transform="translate(196,177)"/>
<path d="M0 0 C0.66 0 1.32 0 2 0 C1.8125 2.3125 1.8125 2.3125 1 5 C-1.5625 6.8125 -1.5625 6.8125 -4 8 C-4.33 7.34 -4.66 6.68 -5 6 C-4.360625 5.38125 -3.72125 4.7625 -3.0625 4.125 C-0.96116416 2.17402388 -0.96116416 2.17402388 0 0 Z " fill="#D6D6D6" transform="translate(254,248)"/>
<path d="M0 0 C1.32 0.33 2.64 0.66 4 1 C4 2.32 4 3.64 4 5 C2.68 5 1.36 5 0 5 C0 3.35 0 1.7 0 0 Z " fill="#C4D4DC" transform="translate(244,169)"/>
<path d="M0 0 C2.475 0.495 2.475 0.495 5 1 C4.67 2.32 4.34 3.64 4 5 C2.68 5 1.36 5 0 5 C0 3.35 0 1.7 0 0 Z " fill="#FBCA21" transform="translate(246,180)"/>
<path d="M0 0 C2.475 0.495 2.475 0.495 5 1 C5.33 2.98 5.66 4.96 6 7 C5.01 7.495 5.01 7.495 4 8 C3.566875 6.576875 3.566875 6.576875 3.125 5.125 C2.23174891 1.94788422 2.23174891 1.94788422 0 0 Z " fill="#504740" transform="translate(228,182)"/>
<path d="M0 0 C0.66 0 1.32 0 2 0 C3.25541557 3.76624671 2.37061958 5.37188934 1 9 C0.67 9 0.34 9 0 9 C-1.125 2.25 -1.125 2.25 0 0 Z " fill="#A19E9F" transform="translate(253,183)"/>
<path d="M0 0 C2.97 0.495 2.97 0.495 6 1 C6 1.99 6 2.98 6 4 C4.02 4 2.04 4 0 4 C0 2.68 0 1.36 0 0 Z " fill="#383539" transform="translate(201,180)"/>
</svg>
